<?xml version="1.0" encoding="UTF-8" standalone="no"?>
<!-- Created with Inkscape (http://www.inkscape.org/) -->

<svg
   width="1200"
   height="200"
   viewBox="0 0 317.49995 52.916666"
   version="1.1"
   id="svg1"
   xml:space="preserve"
   xmlns="http://www.w3.org/2000/svg"
   xmlns:svg="http://www.w3.org/2000/svg"><defs
     id="defs1"><clipPath
       clipPathUnits="userSpaceOnUse"
       id="clipPath12"><path
         id="path13"
         style="fill:#ff0000;fill-opacity:1;fill-rule:nonzero;stroke:none;stroke-width:0.264583"
         d="M 1.5937012,-15.988688 V 110.17725 H 167.48848 V -15.988688 Z M 92.384025,35.192168 c 1.48943,0.06468 2.635105,1.035672 2.879929,2.541964 1.355027,0.04861 2.705534,0.174614 4.040579,0.448034 1.563677,0.45479 2.829507,0.6574 4.147037,1.720308 2.12941,1.717887 2.92625,3.868954 2.28203,6.525183 -0.14751,0.608193 -0.4703,1.159957 -0.70539,1.739945 -0.31901,0.482145 -0.60639,0.986772 -0.95704,1.446424 -1.86389,2.443351 -4.484054,4.245505 -7.276046,5.455481 -1.677754,0.509178 -2.298726,0.828755 -4.098972,0.830956 -2.480051,0.003 -4.680358,-1.0527 -6.569626,-2.579688 -1.019251,-0.946689 -1.81811,-1.546412 -2.50114,-2.826184 -0.755566,-1.415687 -0.990431,-2.778405 -0.812869,-4.12171 -0.471464,0.531928 -1.068655,1.051739 -1.804024,1.53789 -3.265681,2.158929 -6.720851,4.010258 -10.166306,5.86114 -0.816961,0.438558 -1.638638,0.867355 -2.464448,1.287777 1.022745,0.08264 2.044483,0.18292 3.064928,0.300758 0.575874,0.123695 1.183159,0.14615 1.727544,0.371035 2.840681,1.173496 3.873193,2.476702 2.783293,6.564458 -0.121759,0.456661 -0.410978,0.819944 -0.77773,1.133264 0.607399,-0.0047 1.215208,-0.0082 1.822627,-0.01035 0.172906,-0.173273 0.344591,-0.342832 0.51108,-0.508498 0.654349,-0.651116 1.725994,-0.660352 2.611726,-0.920356 1.553057,-0.455893 4.083976,-0.923943 5.661671,-1.238684 0.435784,-0.107222 0.878051,-0.193212 1.322916,-0.269234 -0.169995,-0.666692 -0.240273,-1.338982 -0.129709,-2.022615 0.34126,-2.109994 6.600629,-0.117409 7.526673,0.15813 0.327912,0.322321 0.746713,0.598591 1.160653,0.876949 1.599544,0.611118 3.175773,1.279369 4.701519,2.058789 0.47301,0.40155 1.43064,0.584213 1.41904,1.204576 -0.0398,2.131396 -0.28797,4.49022 -1.55753,6.202723 -0.019,0.02564 -0.0389,0.04984 -0.0594,0.07286 0.66301,0.809355 1.38462,1.691891 2.0991,2.547133 1.29407,-0.672623 2.58619,-1.3511 4.00027,-1.648997 0.56749,-0.119547 0.94888,0.668113 1.39837,1.034563 0.35249,0.287367 0.6707,0.614633 1.00407,0.923976 0.90368,0.838544 1.78245,1.699326 2.65513,2.569868 2.34628,2.25937 3.36352,2.549592 1.21182,5.157825 0.76874,0.799259 1.53358,1.601684 2.28409,2.420006 0.87693,1.186924 2.61138,3.117125 1.35806,4.815726 -1.11692,1.513748 -3.20739,2.064063 -5.01313,2.591576 -0.66877,0.195368 -1.34784,-0.355547 -2.02055,-0.536919 -3.036,-0.818552 -1.19156,-0.389594 -4.49378,-1.055233 -4.28771,-0.651557 -8.61791,-0.561551 -12.928409,-0.217043 0.0019,0.02665 0.0034,0.05345 0.0041,0.0801 0.0081,0.290719 0.0074,0.567867 -0.0036,0.831474 0.520774,0.787652 0.680257,1.807851 0.118856,3.175 -1.529202,3.723969 -4.338579,2.726926 -6.530351,1.889808 -0.600678,-0.283586 -1.12922,-0.592934 -1.566314,-0.951365 -1.1536,-0.4015 -2.312459,-0.785188 -3.473173,-1.172019 -0.394941,-0.131625 -3.426647,-1.117688 -3.774964,-1.405083 -1.024448,-0.845275 -1.771694,-1.978875 -2.657718,-2.968295 0.666306,-1.522558 1.07292,-3.18753 1.998845,-4.567679 0.292878,-0.436555 0.960057,-0.43471 1.461926,-0.59118 0.47529,-0.14818 0.970373,-0.225729 1.459344,-0.31936 2.225522,-0.426135 4.479282,-0.699706 6.722068,-1.012341 4.601911,-0.503293 9.248505,-0.932767 13.87874,-0.820621 -2.004534,-2.127834 -3.778364,-4.47077 -5.664769,-6.697265 -0.572074,-0.721384 -1.732611,-2.164588 -2.71508,-3.437001 -1.20414,1.860148 -3.457806,1.911739 -5.44153,1.966288 -2.142175,0.05891 -4.259008,-0.0738 -6.388756,-0.278019 -0.444193,-0.113382 -0.938358,-0.217829 -1.432988,-0.352949 -3.768217,0.0065 -7.536302,0.06546 -11.303186,0.173633 -4.743786,0.135371 -9.483394,0.298222 -14.22342,0.532783 -0.93232,0.04614 -2.258023,0.911522 -2.796212,0.148829 -0.03122,-0.04424 -0.06223,-0.08812 -0.09302,-0.131776 -1.66221,0.711623 -2.470158,1.004236 -1.645896,-2.363679 -3.003148,-4.410816 -2.37067,-4.37928 0.221691,-5.121135 2.751561,-0.578199 5.508387,-1.149548 8.246526,-1.79524 -2.25543,0.04124 -5.559772,-0.05663 -6.24613,-1.792137 -1.791922,-4.530997 0.62506,-5.655405 3.31556,-6.887435 4.748919,-2.093918 9.482913,-4.22692 14.05909,-6.682795 3.388191,-1.818762 6.776702,-3.648284 9.991638,-5.764507 h 5.29e-4 c 1.372637,-0.903536 2.62473,-1.294622 3.677812,-1.311034 1.9011,-0.02962 3.153558,1.162243 3.29489,2.76624 1.006655,-1.609275 2.071545,-3.181519 3.225126,-4.690152 1.619803,-2.118344 3.452907,-2.959598 4.942334,-2.894912 z m 6.186702,8.749337 c -0.0024,2.65e-4 -0.0048,0.0011 -0.0078,0.0021 -0.182891,0.07045 -0.233857,0.382923 -0.241329,0.66249 0.09884,-0.151966 0.191328,-0.30825 0.276987,-0.46922 -0.01132,-0.06137 0.02185,-0.202613 -0.02791,-0.195337 z m -3.73879,1.363739 c -0.860742,-0.02669 -1.722951,-0.01423 -2.583304,0.01035 -0.219152,0.0062 -0.432041,0.0058 -0.63872,-0.0011 -0.394108,0.589034 -0.778015,1.185744 -1.148768,1.790589 -0.427032,0.41905 -0.418738,1.341914 -0.0832,0.42168 0.03884,-0.106508 -2.65e-4,-0.252513 0.08216,-0.330213 0.08286,-0.07799 0.384615,0.200903 0.697632,0.443383 1.386454,1.032621 1.772598,0.83562 3.242181,0.228928 1.141973,-0.599998 2.282256,-1.349224 3.173449,-2.309421 -0.05612,-0.01045 -0.112233,-0.02082 -0.168465,-0.03049 -0.853194,-0.131347 -1.71223,-0.197072 -2.57297,-0.22376 z m -39.796019,15.97732 c -0.01537,0.01643 -0.01291,0.04824 -0.01707,0.0739 0.0055,-0.02447 0.01132,-0.04944 0.01707,-0.0739 z m 15.517916,1.614371 c 0.07245,0.08159 0.191574,0.101775 0.322977,0.107487 -0.121187,-0.04567 -0.234553,-0.08647 -0.313677,-0.106452 -0.003,-2.65e-4 -0.0063,-7.94e-4 -0.0093,-0.0011 z m 8.611875,26.407692 c -0.07879,0.02003 -0.152095,0.03962 -0.218072,0.05943 -0.0033,0.0011 -0.0057,0.0024 -0.0072,0.0036 l -5.29e-4,5.3e-4 -5.29e-4,5.29e-4 v 5.29e-4 l -5.29e-4,5.29e-4 v 5.29e-4 l -5.29e-4,5.29e-4 c -1.6e-5,1.91e-4 -8e-6,0.0013 0,0.0016 v 5.29e-4 l 5.29e-4,5.29e-4 v 5.29e-4 c 0.01056,0.02223 0.14886,0.06022 0.173117,0.02016 0.01804,-0.02982 0.03579,-0.05953 0.05374,-0.0894 z" /></clipPath><clipPath
       clipPathUnits="userSpaceOnUse"
       id="clipPath56"><path
         id="path57"
         style="fill:#ff0000;fill-opacity:1;fill-rule:nonzero;stroke:none;stroke-width:0.264583"
         d="m 15.519466,-15.988688 c 0.08782,0.749564 0.149508,1.503555 0.189136,2.261361 0.04107,0.572701 0.08017,1.145794 0.117305,1.718758 0.218629,0.09427 0.44604,0.196678 0.683163,0.307474 0.0074,-0.20127 0.01447,-0.40279 0.02119,-0.604097 -0.158926,-0.531121 -0.257969,-1.012738 0.03566,-1.172538 0.0058,-0.218196 0.01099,-0.436511 0.01602,-0.654741 0.0125,-0.702399 0.04163,-1.318869 0.09405,-1.856217 z m 71.870549,0 c 1.918327,0.304847 4.275275,0.635445 7.175272,0.918807 0.376669,0.03681 0.308372,0.691155 0.455785,1.03973 0.65704,1.553641 1.228794,3.139448 1.809194,4.7227089 1.092994,2.9594162 2.125726,5.9407914 3.14606,8.92607004 0.448274,-0.0573276 0.898474,-0.0941236 1.351854,-0.10231935 1.50199,-0.0271513 4.55335,2.35293021 5.95313,3.29178871 2.19628,1.4891303 4.39138,2.9809588 6.56497,4.5030842 1.87179,1.3295569 3.75837,2.6384848 5.68389,3.8891685 1.20253,0.72589 2.38031,1.494779 3.62665,2.144055 0.9659,0.535943 1.98487,0.956978 2.96003,1.475362 1.03142,0.530055 1.92696,1.230859 2.70061,2.053105 0.65753,-0.667493 1.4575,-1.001489 2.25723,-1.001489 h 5.3e-4 c 1.89715,0 3.79409,1.878118 3.79409,5.634281 v 1.72806 0.299723 c 0.22352,0.688165 0.45079,1.375262 0.63407,2.075843 0.0353,0.134131 0.0693,0.26847 0.10232,0.403076 0.27662,0.0419 0.57347,0.08154 0.89193,0.117822 2.39829,-0.470008 2.8898,-1.024211 2.85306,0.22686 0.0276,0.568902 -0.0182,1.128276 -0.0739,1.694987 -0.10105,0.693378 -0.34745,1.340755 -0.61082,1.984891 0.004,0.100026 -0.49997,0.960969 -0.51779,0.998905 0.004,-0.0059 0.0281,-0.04341 0.0775,-0.124539 -0.20537,0.415264 -0.28219,0.561581 -0.30747,0.606163 -0.006,0.02246 -0.0437,0.122785 -0.18449,0.453721 -0.19481,0.363421 -0.15841,0.304133 -0.23099,0.423746 0.0223,-0.02992 0.0348,-0.04493 0.0393,-0.04754 l 5.3e-4,-5.29e-4 h 5.3e-4 5.3e-4 v 5.29e-4 5.29e-4 5.29e-4 c -0.003,0.02231 -0.13737,0.246243 -0.27648,0.476973 0.12251,0.473958 0.23332,0.950936 0.32661,1.431438 0.23391,1.098439 0.45158,2.198177 0.62993,3.307291 0.21113,1.238269 0.3514,2.484618 0.51212,3.730004 0.16041,1.104267 0.3247,2.209038 0.43356,3.319695 0.0974,0.89984 0.26376,1.786139 0.46302,2.669087 0.0505,0.302051 0.10522,0.603952 0.16485,0.904854 0.15675,0.262705 0.2352,0.523418 0.18086,0.763262 -0.003,0.01365 -0.006,0.02723 -0.009,0.04083 2.6e-4,0.0013 7.9e-4,0.0028 0.001,0.0041 0.27322,0.126331 0.54505,0.2559 0.81494,0.388607 0.35657,0.195284 0.78089,0.419317 1.187,0.686779 0.647,-0.204952 1.25056,-0.29504 1.79989,-0.289388 3.82319,0.03935 5.02436,4.728191 0.0155,7.787121 -1.86476,1.138838 -3.77385,2.204464 -5.69165,3.250965 -1.75936,1.018997 -3.58299,1.903902 -5.46788,2.66237 -0.22105,0.08792 -0.44228,0.175596 -0.66353,0.263032 1.21755,4.430411 2.35528,8.882134 3.41995,13.351643 0.47208,2.055095 0.93697,4.111921 1.4087,6.167064 0.23901,-0.0055 0.47825,-0.01109 0.71727,-0.01654 14.24508,-0.267182 7.2414,-0.148865 21.01112,-0.358119 3.84227,-0.05839 6.83306,0.77007 8.96638,2.091862 V -15.988688 Z M 107.37794,6.0197876 c 1.1e-4,0.00135 7.9e-4,0.00504 0.002,0.0093 0.018,0.063745 0.0365,0.1271805 0.0553,0.190686 -0.003,-0.01914 -0.005,-0.038275 -0.008,-0.057361 -0.005,-0.038126 -0.0412,-0.132471 -0.0481,-0.1421103 l -5.3e-4,-5.292e-4 z m -4.99039,39.9370964 c -0.62424,0.109802 -1.22852,0.189262 -1.81281,0.240813 -0.0196,0.526317 -0.0402,1.052484 -0.0615,1.578716 1.43531,0.30357 2.87127,0.607158 4.3062,0.914673 -0.11015,-0.09473 -0.21909,-0.19099 -0.32556,-0.289907 -0.78891,-0.732957 -1.45244,-1.585955 -2.10633,-2.444295 z m -55.177512,7.013009 c -0.02748,0.248727 -0.03467,0.338452 -0.02946,0.342614 h 5.29e-4 5.29e-4 l 5.3e-4,-5.29e-4 c 0.0068,-0.01019 0.02363,-0.08541 0.04393,-0.170532 -0.0069,-0.05656 -0.01228,-0.113869 -0.01603,-0.171566 z m 15.7856,2.602942 c -5.992479,4.187872 -11.127727,7.082067 -12.68708,0.794784 -0.371782,0.314272 -0.745869,0.625766 -1.122413,0.934826 -1.445332,1.111491 -3.020597,2.428139 -4.647261,3.301608 -0.844264,0.453343 -1.673548,1.074648 -2.62723,1.168403 -0.75623,0.07435 -1.542426,0.181242 -2.328024,0.245981 -0.485884,5.069599 -1.25463,10.109398 -2.168859,15.118974 -0.08844,0.477999 -0.181641,0.954728 -0.279569,1.430403 1.801876,-0.558088 3.962342,-0.835133 6.476606,-0.720886 4.687861,0.213024 9.377159,0.41284 14.070976,0.427882 4.733798,-0.0085 5.578321,0.01093 10.30738,-0.08113 6.474704,-0.126045 12.944796,-0.46536 19.422071,-0.447519 1.512072,0.03143 3.025087,0.03077 4.536159,0.09405 6.640949,0.278104 13.251946,1.236401 19.554356,3.409093 0.78817,0.282289 1.57384,0.571328 2.35748,0.865066 -0.11889,-0.436891 -0.25109,-0.870471 -0.38912,-1.301213 -0.25633,-0.829408 -0.51606,-1.656673 -0.67283,-2.506308 0.0292,0.04899 0.0589,0.09954 0.0904,0.150894 0.82059,1.346396 3.41762,1.53492 5.2989,0.887286 -0.0241,-0.09936 -0.0487,-0.198837 -0.0729,-0.298172 -1.87321,-0.652989 -4.34235,-2.274319 -5.41724,-2.505276 0.0386,-0.747178 0.18864,-0.949603 0.90021,-0.941028 0.55345,0.0067 1.44671,0.140862 2.89129,0.245981 -0.61468,-1.023523 -1.30264,-2.017858 -2.07429,-3.028755 -0.72751,-0.9531 -1.54222,-1.8352 -2.34869,-2.723864 -1.72219,0.400722 -3.45056,0.775531 -5.17953,1.144114 -2.47746,0.518242 -4.97658,0.928254 -7.491532,1.211297 -1.041646,0.11507 -2.079988,0.112493 -3.111955,0.0217 -4.176705,1.186127 -8.702596,-0.562155 -13.050367,-0.813904 -0.4079,-0.659384 -0.848458,-1.299673 -1.223698,-1.978173 -0.253322,-0.458057 -0.846825,-1.98469 -1.029912,-2.452563 -0.478578,-1.222994 -0.946316,-2.450338 -1.413351,-3.677814 -1.538052,1.604343 -5.639705,-1.069216 -16.326651,-3.973917 -0.0191,0.108783 -0.04251,0.221805 -0.07028,0.339513 -0.0073,0.03087 -0.0127,0.04724 -0.01654,0.05168 l -5.29e-4,5.3e-4 -5.29e-4,5.29e-4 h -0.0011 -5.29e-4 -5.3e-4 -5.29e-4 v -5.29e-4 h -5.29e-4 v -5.3e-4 c -0.01016,-0.01995 0.0011,-0.207859 0.01498,-0.411861 -0.01548,-0.0042 -0.03099,-0.0082 -0.04651,-0.01241 -0.18633,-0.05044 -0.285028,-0.170685 -0.328144,-0.334862 -3.828854,-0.989044 -0.843868,-2.927466 0.196368,-1.530141 0.03346,-0.181054 0.05595,-0.353097 0.05168,-0.503843 -0.0048,-0.170717 -0.02048,-0.779328 -0.04082,-1.599904 z m 36.815842,4.72581 c -0.03941,0.482809 -0.231219,2.763491 -0.421164,4.51032 1.917764,-0.238651 3.824124,-0.563914 5.717484,-0.952399 -1.70807,-1.265664 -3.48194,-2.442247 -5.29632,-3.557921 z M 1.5931844,74.093152 V 110.17725 H 30.097905 C 24.590132,108.89991 19.116957,107.47589 13.664282,105.98009 9.9861563,104.92081 2.724041,103.31734 3.6328533,97.539265 4.9099036,89.419996 7.7131233,88.020493 11.653552,87.586386 11.102082,84.322629 10.83309,81.622445 10.38903,77.980254 10.31264,77.256304 10.23934,76.53215 10.168888,75.807776 7.3148039,75.374876 4.4459197,74.473827 1.5931844,74.093152 Z M 112.4722,76.514193 c 0.0657,-5.1e-5 0.14124,0.0095 0.2248,0.02739 -0.0125,0.242226 -0.0131,0.541954 -0.0176,0.910024 0.0255,0.287877 0.0664,0.57178 0.11834,0.853694 -0.78556,-1.321745 -0.7866,-1.790748 -0.32557,-1.791105 z m 55.01577,21.382675 c -1.04522,0.661085 -2.29745,1.208651 -3.7574,1.5968 0.25448,1.684142 0.29102,3.371522 -0.03,5.023462 -0.42482,2.1865 -3.69698,2.48564 -5.5454,3.72846 -1.31486,0.37414 -2.61801,0.7917 -3.94446,1.12241 -1.03343,0.25767 -2.30992,0.53714 -3.64009,0.80925 h 16.91732 z m -17.25993,8.208282 c 0.2189,4.34505 0.18342,0.801 2.12442,0.37672 -0.66166,-0.12806 -1.39554,-0.25528 -2.12442,-0.37672 z" /></clipPath></defs><g
     id="layer2"
     transform="matrix(0.93153594,0,0,0.95392607,2.7694442,0.748732)"><path
       id="path58"
       style="baseline-shift:baseline;display:inline;overflow:visible;opacity:1;vector-effect:none;fill:#ffffff;enable-background:accumulate;stop-color:#000000;stop-opacity:1"
       d="M 42.788742,44.081423 C 42.006549,43.47971 41.123773,42.925587 40.160087,42.425755 36.305345,40.426428 31.066803,39.222664 25.28898,39.222664 c -0.847435,0 -1.683106,0.02603 -2.504576,0.07645 l -0.615229,1.291644 -2.96e-4,0.231584 c 1.016395,-0.08228 2.058402,-0.124932 3.120026,-0.124932 5.57111,0 10.60887,1.180909 14.191424,3.039061 3.582554,1.858152 5.621246,4.321655 5.621245,6.880608 0,2.558954 -2.038573,5.024551 -5.621127,6.882703 -3.582554,1.858152 -8.62009,3.037409 -14.1912,3.037409 -5.571109,0 -10.607103,-1.178813 -14.189658,-3.036965 -3.5825536,-1.858152 -5.6211084,-4.324391 -5.6211084,-6.883345 0,-2.558953 2.0387886,-5.022248 5.6213414,-6.8804 1.807792,-0.937642 3.985306,-1.702783 6.415232,-2.230815 l 4.31e-4,-1.512869 c -2.665166,0.552031 -5.070953,1.383137 -7.095536,2.433221 -3.8547432,1.999328 -6.4160589,4.863903 -6.4160589,8.191264 0,3.327362 2.5609825,6.192033 6.4157259,8.191361 3.854742,1.999327 9.091526,3.205268 14.869348,3.205268 5.777823,0 11.016471,-1.205874 14.871213,-3.205201 3.854743,-1.999328 6.416059,-4.863903 6.416059,-8.191265 0,-2.49552 -1.440917,-4.730887 -3.787494,-6.536025 z"
       transform="matrix(0.80186323,-0.59750761,0.6477916,0.76181761,9.1694439e-8,0)" /><path
       id="path58-5"
       style="baseline-shift:baseline;display:inline;overflow:visible;vector-effect:none;fill:#ffffff;stroke-width:0.947053;enable-background:accumulate;stop-color:#000000"
       d="m 76.054232,20.245359 -1.120583,0.85159 c 0.120024,0.10893 0.233816,0.223394 0.341168,0.343452 1.617025,1.808433 1.653932,4.743967 0.155328,8.152942 -1.498601,3.408974 -4.511528,7.189109 -8.667881,10.448224 -4.156353,3.259114 -8.658085,5.37189 -12.505048,6.154522 -3.846963,0.782633 -6.926593,0.232559 -8.543618,-1.575874 -0.234967,-0.262781 -0.436343,-0.549249 -0.604671,-0.857548 l -1.135007,0.862424 c 0.18482,0.300476 0.397908,0.587146 0.640175,0.85809 2.102588,2.351474 5.823411,2.877891 9.962654,2.035797 4.139244,-0.842093 8.808023,-3.053468 13.118595,-6.43351 4.310573,-3.380042 7.457058,-7.297053 9.069516,-10.965028 1.612457,-3.667976 1.713156,-7.190989 -0.389431,-9.542463 -0.103095,-0.115299 -0.210458,-0.226042 -0.321197,-0.332618 z" /><path
       style="display:inline;fill:#ffffff;fill-opacity:1;stroke:#ffffff;stroke-width:1.44412;stroke-dasharray:none;stroke-opacity:1"
       d="m 70.265206,12.191365 5.936731,9.35803"
       id="path59" /><path
       style="display:inline;fill:#000000;fill-opacity:1;stroke:#ffffff;stroke-width:1.17762;stroke-dasharray:none;stroke-opacity:1"
       d="m 47.189379,37.778984 7.509297,8.044704"
       id="path61" /><path
       style="display:inline;fill:#000000;fill-opacity:1;stroke:#ffffff;stroke-width:1.10388;stroke-dasharray:none;stroke-opacity:1"
       d="m 56.157608,34.709111 6.64136,7.992573"
       id="path61-2" /><path
       style="display:inline;fill:#000000;fill-opacity:1;stroke:#ffffff;stroke-width:1.08125;stroke-dasharray:none;stroke-opacity:1"
       d="m 68.969243,22.506015 6.044369,8.425581"
       id="path61-1" /><path
       style="display:inline;fill:#000000;fill-opacity:1;stroke:#ffffff;stroke-width:1.05677;stroke-dasharray:none;stroke-opacity:1"
       d="m 63.27821,29.096113 6.061316,8.025873"
       id="path61-7" /><path
       style="display:inline;fill:#ffffff;fill-opacity:1;stroke:#ffffff;stroke-width:1.45227;stroke-dasharray:none;stroke-opacity:1"
       d="M 45.824705,45.554895 36.648702,35.817477"
       id="path60" /></g><g
     id="layer1"
     clip-path="url(#clipPath56)"
     transform="matrix(-0.514345,-0.63168562,-0.60663465,0.61197296,120.58326,102.29832)"
     style="display:inline"><path
       id="path1350"
       style="display:inline;fill:#ffffff;fill-opacity:1;stroke:none;stroke-width:0.167017;stroke-dasharray:none;stroke-opacity:1"
       d="m 139.03023,52.586594 c 3.37665,1.512148 -3.57132,-4.928909 1.16373,-3.330558 10.43509,-0.232868 20.38044,-7.056976 24.28806,-16.742049 3.43519,-7.374749 3.18297,-15.774321 2.68107,-23.7089885 -0.91651,-9.03023905 -5.08113,-18.9979805 -14.14753,-22.4629985 -8.52032,-4.396128 -18.3687,-1.128024 -26.24477,3.095027 -3.86381,2.9540061 -8.97439,0.9741924 -12.56614,0.7338012 -0.0539,5.3608801 6.51444,6.7327543 10.79093,6.6068083 5.54272,-0.038109 11.47023,-0.1594991 16.25178,3.12207865 5.72576,3.57521745 7.22919,11.21027085 6.8359,17.49777985 -0.0809,5.247718 -2.8028,11.473162 -8.39854,12.638146 -23.23565,-9.636151 -7.90663,11.710294 -0.65449,22.550953 z m 1.56791,-67.15418 c 5.90148,-0.680706 11.51058,1.812823 16.33195,4.9643601 7.64585,6.2286208 9.56936,16.7633165 9.43685,26.1301389 -0.006,4.959178 -0.37757,12.239114 -3.41861,15.453318 -0.661,-1.518793 -5.97261,-6.318473 -1.56657,-3.713585 6.81519,3.011582 -7.08179,-4.311515 -0.42296,-1.934463 1.96575,0.951496 4.96255,2.274387 1.50138,-0.05185 -2.34901,-0.706017 -3.15106,-3.695164 -0.22934,-1.472347 2.40466,1.442605 3.65885,1.361806 0.6176,-0.469711 -3.43572,-2.258719 2.4396,-0.362192 -0.68948,-2.036588 -2.044,-1.015133 -3.16762,-2.100021 -0.32909,-0.788372 2.05159,1.578202 2.87407,3.296567 2.23879,0.163626 -3.38797,-3.110858 4.33769,1.031932 0.51842,-1.325163 -2.08543,-0.580104 -8.28752,-2.529563 -2.81764,-1.628522 2.48558,0.204665 5.64325,1.989311 1.88086,-0.467495 -1.26751,-0.57291 2.47831,0.466601 0.36323,-1.526863 3.63819,-0.1943 -3.71726,-1.372421 -5.13252,-1.619727 -3.44345,-1.321923 -7.15619,1.366203 -9.87311,1.026281 3.73261,-3.537684 10.22621,-2.679971 15.18136,-3.511397 -2.583,-0.980877 -8.46093,0.250807 -12.1287,1.118597 -5.56253,2.066715 1.87469,-2.369459 4.2668,-2.42638 5.69635,-1.4278407 -6.47468,2.389907 -0.37403,1.004462 2.21452,-1.146547 7.93893,-1.279612 8.19111,-1.557399 -4.4813,-1.1947904 1.46218,-1.3613716 -0.0129,-1.6224419 -3.94492,-0.6175072 -1.23783,-1.3405494 0.80243,-1.5107482 -1.82618,-0.8043132 -9.79863,0.8416743 -4.52294,-0.7647192 2.0967,-0.2297508 6.11455,-0.1233731 2.0346,-1.0736536 1.14701,-0.2513843 -3.15487,-1.5542398 0.52169,-1.5877898 -1.66685,-1.0155175 -9.23083,1.0571002 -4.1987,-0.980051 4.57362,-2.53372118 -6.89331,2.3791142 -1.13104,-0.7355613 0.89748,-0.4153573 5.2246,-1.3372309 1.96571,-1.80643287 3.13579,-1.95462133 -0.43656,-3.13025423 -1.9579,-2.17959073 3.6154,0.1079179 1.61179,-5.4308667 -0.18391,-4.0385904 -2.93838,-0.2895776 -2.52125,-0.1643097 -0.17461,-1.1077805 -2.67563,0.3167683 2.64851,-1.5214245 -1.05128,-0.8208132 -3.81203,0.5704393 -0.71743,0.1002774 0.55101,-1.0665411 -2.76577,0.00961 -3.78136,0.6197257 -3.78685,-1.8688862 -2.30648,1.0234375 -2.91812,-0.29779 -1.82632,-1.336807 -1.72272,-0.149705 -5.69855,0.863598 -4.89893,-0.414838 -0.89606,0.165769 -3.09426,0.78985 -0.96998,-0.260723 -3.69028,-0.480904 -7.80246,5.1933038 -7.86379,6.7574173 0.66474,-2.3429 5.72178,-5.3291513 6.22287,-4.4925973 -2.28011,0.4486445 -6.02537,6.0557812 -4.81779,5.2567864 1.53648,-3.1754249 6.78278,-6.1648304 8.7778,-5.7993774 -3.90185,-0.05514 -7.99923,5.4585018 -7.12454,7.3197517 -0.34648,-3.0140885 5.74073,-7.3641827 5.77099,-5.7076276 -2.69071,0.4793686 -6.57367,6.0236429 -3.75867,6.7755853 0.91361,-1.4343716 4.73056,-6.4114502 5.0025,-4.8360877 -2.21502,1.529346 -2.42667,2.3150177 -1.26816,2.3302612 -1.21695,1.0600103 -4.64978,5.41980533 -1.25844,2.1731866 4.82172,-2.6659453 0.22295,1.3842166 0.16015,3.2340382 1.96123,-2.6749887 8.40625,-6.2418564 9.43281,-5.27054 -3.69427,1.0715169 -7.04374,5.04861265 -9.37851,6.5451816 -4.57726,-4.4225555 -11.0501,-6.4140239 -17.33483,-5.9613912 -4.5472,0.1096693 -11.2389,0.3004359 -12.93446,-4.9923692 2.80552,1.3309295 6.80562,1.5383794 10.08334,0.1724765 -0.20915,2.6354896 -9.94694,2.1488173 -4.5816,2.869031 1.76536,-0.4216165 6.14842,-1.4420205 2.18463,-0.067294 -2.48536,1.7501601 4.74434,-0.2930975 5.75176,-1.139823 2.32392,-0.7291389 5.03659,-1.4392486 1.2507,0.084257 -5.04582,2.4836481 3.181,-0.6012627 4.85804,-1.0519421 1.98532,-0.8456623 5.42508,-3.0900763 2.75577,0.5499862 -0.0925,2.5864357 1.48994,-3.5366325 3.5346,-3.2206025 2.32226,-0.785914 3.80865,-3.417994 0.57253,-0.986862 -2.59234,1.621338 -0.89105,0.551773 -0.94469,-0.809228 -3.13209,1.5051 -6.61459,0.766443 -9.73087,2.7095545 0.47936,-3.5447145 6.9191,-3.4402605 9.93152,-4.5967275 z m 10.38954,5.0415315 c -2.27481,1.2732301 -2.37235,-0.2752608 0,0 z m -15.06729,0.074931 c -0.83354,0.9776201 -1.46481,0.3820493 0,0 z m 11.96412,0.3477824 c -2.36648,0.4912651 -5.16523,6.6594069 -5.77592,4.8387422 0.73252,-2.596353 3.49863,-3.8829365 5.77592,-4.8387422 z m -11.20086,0.6247686 c -1.68688,0.9626949 -7.8579,3.0141613 -6.30191,3.2357498 2.05138,-1.0846233 4.96802,-1.1390274 6.30191,-3.2357498 z m 16.24913,0.928628 c -1.89743,1.8984419 -5.00501,0.781797 -0.924,0.181894 z m -27.13219,0.00568 c 0.0629,0.7313634 -2.16188,0.2734441 0,0 z m 23.79286,0 c -0.13365,0.5432994 -1.01951,0.034299 0,0 z m 5.14181,0.9513632 c 0.43757,0.255397 -1.71061,0.2830093 0,0 z m -1.79421,0.4475179 c -3.36693,1.9812245 -2.32716,0.4976254 0,0 z m -17.49919,0.00517 c -2.74323,0.2781504 -3.97787,2.3998293 -0.51772,0.6342445 -0.0456,0.1982569 1.12229,-0.4944878 0.51772,-0.6342445 z m 18.42368,0.4785433 c 1.29067,-0.1161232 -0.44058,0.287434 0,0 z m -0.45888,0.1457275 c 0.50425,0.5986527 -1.30166,0.063994 0,0 z m -4.83847,0.9244914 c 0.35407,0.5054336 -0.91678,0.1251399 0,0 z m -0.008,1.4893148 c -0.90389,1.5510541 -2.70962,1.1972654 0,0 z m 2.90653,1.3141318 c 4.05546,0.6470535 -6.39944,3.852672 -3.67166,5.7649013 1.29475,-0.7168184 7.45275,-4.76987084 3.84681,-1.1565823 -2.12699,0.6231371 -2.88187,4.8163483 -3.50745,4.5702799 -4.16507,-4.6792131 -0.47374,-6.3330344 3.3323,-9.1785989 z m 1.81333,0.93689376 c -0.20297,0.85295898 -1.16866,0.0701412 0,0 z m 6.40219,0.6258016 c 0.0405,0.61340794 -1.11601,-0.009151 0,0 z m -7.70134,0.70641682 c -1.3965,1.46103252 -5.94292,3.89651112 -2.11662,1.02446662 0.63609,-0.4624998 1.34116,-0.85640558 2.11662,-1.02446662 z m 2.43396,1.76319992 c -1.72921,1.2339714 -4.48915,2.0059599 -1.14617,0.3119896 l 0.5663,-0.1811392 z m 2.24741,0.050126 c -1.38466,1.8115163 -9.26397,6.1192438 -3.84216,2.0093527 1.11535,-0.9748327 2.46818,-1.5123386 3.84216,-2.0093527 z m -1.7048,2.9305706 c 0.42068,0.5318086 -5.86856,2.6113788 -4.75374,3.6294138 2.78797,-1.8729181 7.03299,-3.8767188 5.85483,-1.9032115 2.19244,-0.5474457 -4.59976,1.5178686 -5.74153,2.3995881 -1.11085,1.3966295 8.88163,-3.1791137 3.68546,-0.4007632 -3.45864,1.0529047 -0.48332,1.8344867 -3.90435,3.3577907 -1.24044,0.963035 2.25237,-0.194481 -0.49677,1.227806 -2.29265,-3.202636 0.65155,-7.7046441 4.6362,-8.2016816 z m 2.37556,3.7093339 c -2.45864,1.548214 -3.83244,0.7937145 0,0 z m -0.10593,1.104843 c 0.52713,0.256639 -0.60014,0.302619 0,0 z m -3.59978,0.698665 c -1.95994,1.859731 -2.24464,0.525069 1e-5,1.6e-5 z m 6.33139,2.992076 c -2.44278,-0.454219 -8.33978,1.071313 -2.77556,0.610653 2.26608,-0.418575 7.37086,0.357005 7.84554,-0.314027 -1.61684,-0.653993 -3.39237,-0.0918 -5.06998,-0.296626 z M 131.07827,31.91181 c 76.16771,-4.266079 76.16771,-4.266079 0,0 z m 29.68401,-15.937591 c 0.76137,0.121293 -0.76627,0.115371 0,0 z m 0.40153,0.14779 c 3.59635,0.492072 0.66857,0.447976 0,0 z m -10.68411,0.782415 c 3.35011,-0.217123 7.56134,1.830471 9.56187,2.965698 -2.56303,-1.233904 -7.00011,-0.724153 -6.14561,0.616752 -1.43183,-0.28291 -3.71172,0.361434 -1.44199,1.320083 -1.89125,-0.426328 -4.99409,2.568496 -1.57662,2.515384 -2.85382,1.066598 2.08311,1.62395 -1.66684,1.960886 -2.43013,-0.401238 -1.85474,3.527728 -3.68218,3.058466 1.66637,2.921009 -4.88001,1.218117 -1.38218,-0.71099 3.91126,-2.718927 3.88391,-8.130423 5.80828,-11.579423 l 0.52525,-0.146856 z m 11.03241,1.14205 c 0.75898,-0.04577 0.10879,0.582372 0,0 z m -0.72968,1.956986 c 2.10055,0.648966 3.42606,2.032166 0.63293,0.389318 z m -8.36331,0.950327 c 0.88786,0.05306 -0.49159,0.258369 0,0 z m 0.62942,0.152445 c 1.6894,-0.2777 2.52548,1.717672 0,0 z m 6.02857,3.098461 c 1.6234,0.294998 0.20654,0.749842 0,0 z m -2.31769,4.076232 c 2.15562,0.788068 8.65669,5.398273 4.54409,6.48753 -1.34864,-1.48832 -4.05818,-5.783313 -0.76981,-2.076793 3.08674,2.035016 -2.0234,-3.371325 -3.77428,-4.410737 z m 0.0269,0.948815 c 1.82193,0.672998 2.13116,1.997439 0,0 z m -9.37153,0.265617 c 0.63674,0.260524 -0.39573,0.452352 0,0 z m 5.69216,0.158146 c 1.93263,0.639188 4.25942,2.553601 0.86947,0.523594 z M 137.4142,40.522976 c 0.0701,1.829075 -3.07425,5.230258 -1.91801,1.406576 2.39213,-2.92149 3.84309,-11.497824 -1.85929,-10.616296 0.87257,2.337009 -3.88731,7.813796 -1.41239,3.044727 0.72891,-1.333516 6.4293,2.582888 5.18969,6.164993 z m 15.42608,-10.39975 c 3.87205,2.258417 9.69551,8.338182 3.58006,11.537921 -2.88861,3.743696 -2.78096,0.02749 -3.54895,-2.410831 -0.75219,-1.387685 -3.83825,-6.182953 -0.93847,-2.300541 0.94158,2.207285 4.60584,6.991377 1.89589,2.02901 -0.55978,-1.825467 -3.56513,-7.323914 -2.79875,-6.299746 2.35839,2.036067 4.5566,6.508075 5.02817,8.234592 0.13116,-2.264984 -1.90688,-6.347796 0.19821,-2.061356 0.60253,0.843625 -1.33953,-5.033312 0.77788,-0.599243 2.53618,2.606302 -3.59207,-6.681697 0.15376,-1.964115 3.67909,4.844763 -0.55368,-2.515818 -2.34702,-3.568776 -0.72144,-0.821272 -1.41713,-1.670556 -2.00078,-2.596915 z m -11.28923,0.510563 c 1.23536,0.808907 -0.16395,0.64917 0,0 z m -0.84749,0.241846 c 2.2103,1.350148 -3.63831,0.962592 0,0 z m -2.4567,0.01654 c 0.84467,0.480391 -0.25942,1.70297 0,0 z m 11.10733,0.158642 c 0.61277,0.276584 0.66364,0.932743 0,0 z m -10.22056,0.183968 c 0.2178,0.475953 -0.23101,0.438386 0,0 z m 17.5612,0.305921 c 2.41894,-0.197632 6.55294,6.578724 2.89743,2.595861 -0.94595,-0.887205 -1.92127,-1.742258 -2.89743,-2.595861 z m -20.92276,0.496619 c 1.84276,2.181303 -0.0148,9.227814 -1.32064,8.818235 1.59807,-2.548499 2.00184,-5.898326 1.32064,-8.818235 z m 20.19205,0.03927 c 2.12077,0.172391 6.45379,5.960152 3.47226,5.065254 -0.25648,-2.359832 -2.13235,-3.387302 -3.47226,-5.065254 z m -23.73602,0.678512 c -0.72315,2.920793 -3.10483,3.16346 0,0 z m 15.08901,0.164331 c 1.85794,2.25064 1.97892,3.667823 0,0 z m 1.25987,0.155546 c 1.22386,0.626811 0.42739,1.076957 0,0 z m -7.59282,2.007112 c 0.61744,0.640359 -0.44304,0.722042 0,0 z m -7.18509,0.07031 c -0.64763,1.940442 -0.54759,5.671087 1.07952,2.565041 -0.61328,6.494196 -4.91072,-1.305478 -1.07952,-2.565041 z m 7.87187,0.735342 c 0.66232,0.866368 -0.12227,1.328677 0,0 z m 6.57427,0.117822 c 1.83736,2.062972 3.16569,7.371942 4.1572,7.972458 0.73133,-2.692962 -3.18504,-6.406107 -2.59429,-7.619429 1.23795,1.865008 1.74904,2.525848 1.68077,1.588099 3.65307,4.226584 0.45852,9.040991 -4.72592,9.172597 -6.12012,2.860578 -2.22304,-5.129199 -3.37126,-8.535977 1.59308,-1.150103 1.99005,5.014085 1.37442,7.1121 1.03235,-1.356749 0.4159,-9.063599 2.54207,-4.999989 -0.0651,1.651422 -0.14707,7.024954 0.39755,2.381035 0.41808,-3.264772 1.58901,5.08124 1.2666,0.443234 -0.79822,-2.024648 -2.76289,-6.61626 -0.98805,-4.685854 1.50753,-2.476943 2.13205,11.022181 2.19157,4.340351 -0.25944,-2.479585 -1.27921,-4.783306 -1.93066,-7.168625 z m -7.8853,0.01964 c 0.75416,2.365907 -0.46608,5.01663 -0.0743,1.024065 z m -1.09503,0.383906 c 1.5499,3.287257 0.13167,2.972578 0,0 z m 5.86166,2.955923 c 0.88375,0.710633 -0.64204,0.625086 0,0 z m -5.50509,0.167948 c 0.19822,0.794984 -0.20029,0.669379 0,0 z m 1.2883,1.204059 c -0.91848,2.815102 -1.45513,4.700655 -0.48309,3.263146 -2.06865,6.264619 1.93759,-5.26988 2.01626,-0.214868 -0.73503,3.619366 1.36821,-2.980411 0.56643,1.373303 0.63738,3.285457 -2.29896,2.995861 -4.4995,2.85861 -2.60427,-0.411945 -2.08038,-5.659942 -1.30377,-2.901906 1.63057,-2.003912 -0.5352,2.03409 1.0734,-0.329757 1.30286,-1.637567 1.28075,-3.434331 2.63027,-4.048528 z M 146.1332,41.013 c -0.35652,2.224983 -0.61052,7.704478 0.29088,2.526964 0.0779,-0.846627 0.0588,-1.735892 -0.29088,-2.526964 z m -7.73906,0.05013 c -0.2159,1.838943 -1.1093,0.971632 0,0 z m 2.728,1.070224 c -0.0834,1.140842 -0.50833,0.270417 0,0 z"
       clip-path="url(#clipPath12)"
       transform="matrix(0.70825751,-0.01674026,-0.01674026,0.72558868,48.317818,17.156591)" /></g><text
     xml:space="preserve"
     style="font-style:normal;font-variant:normal;font-weight:normal;font-stretch:normal;font-size:48.0741px;font-family:'JetBrains Mono';-inkscape-font-specification:'JetBrains Mono, @wght=100';font-variant-ligatures:normal;font-variant-caps:normal;font-variant-numeric:normal;font-variant-east-asian:normal;font-variation-settings:'wght' 100;writing-mode:lr-tb;direction:ltr;fill:#ffffff;fill-opacity:1;stroke:#ffffff;stroke-width:1.86847;stroke-dasharray:none;stroke-opacity:1"
     x="82.290672"
     y="41.468716"
     id="text120"
     transform="scale(0.97425719,1.026423)"><tspan
       style="font-style:normal;font-variant:normal;font-weight:normal;font-stretch:normal;font-size:48.07410079px;font-family:'JetBrains Mono';-inkscape-font-specification:'JetBrains Mono, @wght=100';font-variant-ligatures:normal;font-variant-caps:normal;font-variant-numeric:normal;font-variant-east-asian:normal;font-variation-settings:'wght' 100;stroke-width:1.86847"
       x="82.290672"
       y="41.468716"
       id="tspan121">drummock</tspan></text></svg>
